<?xml version="1.0" standalone="no"?>
<!DOCTYPE svg PUBLIC "-//W3C//DTD SVG 20010904//EN"
 "http://www.w3.org/TR/2001/REC-SVG-20010904/DTD/svg10.dtd">
<svg version="1.0" xmlns="http://www.w3.org/2000/svg"
 width="4096.000000pt" height="4096.000000pt" viewBox="0 0 4096.000000 4096.000000"
 preserveAspectRatio="xMidYMid meet">

<g transform="translate(0.000000,4096.000000) scale(0.100000,-0.100000)"
fill="#000000" stroke="none">
<path d="M15680 29463 c-51 -8 -157 -46 -210 -74 -197 -104 -336 -302 -370
-526 -7 -46 -10 -557 -8 -1573 l3 -1505 28 -80 c84 -240 271 -416 503 -475 99
-26 412 -28 511 -5 249 59 443 245 525 505 l23 75 0 1525 c0 1717 6 1580 -77
1750 -57 116 -196 257 -308 313 -127 63 -205 77 -414 76 -100 -1 -192 -4 -206
-6z"/>
<path d="M24810 29449 c-204 -52 -368 -186 -460 -374 -81 -163 -75 -22 -75
-1750 l0 -1540 28 -80 c85 -241 270 -416 503 -475 112 -29 416 -29 528 0 206
52 377 199 470 402 65 141 61 37 61 1708 l0 1525 -23 80 c-74 254 -265 441
-516 505 -112 28 -405 28 -516 -1z"/>
<path d="M11820 26873 c-102 -10 -205 -27 -292 -49 -687 -172 -1204 -767
-1278 -1469 -8 -82 -10 -1673 -8 -6240 4 -5785 5 -6135 21 -6214 57 -277 161
-512 320 -727 76 -102 269 -290 374 -364 240 -168 495 -268 780 -305 100 -13
1143 -15 8734 -15 6047 0 8649 3 8717 11 732 80 1335 622 1491 1340 11 52 25
144 31 205 14 152 14 12126 0 12278 -40 413 -209 767 -509 1066 -132 130 -258
220 -426 304 -199 99 -383 153 -604 175 -66 7 -542 11 -1336 11 l-1234 0 -4
-577 c-3 -547 -5 -583 -25 -670 -132 -568 -530 -979 -1087 -1120 -108 -28
-115 -28 -410 -28 -316 0 -340 2 -503 51 -445 133 -811 488 -957 927 -70 210
-68 192 -72 835 l-4 582 -3059 0 -3059 0 -4 -572 c-3 -544 -5 -578 -25 -670
-88 -390 -308 -714 -627 -923 -149 -98 -284 -157 -459 -202 -93 -24 -123 -26
-369 -30 -300 -6 -394 4 -567 59 -226 72 -407 184 -585 362 -172 173 -277 341
-350 559 -70 211 -68 192 -72 835 l-4 582 -1252 -2 c-689 0 -1268 -3 -1287 -5z
m17465 -8988 l0 -4960 -8807 -3 -8808 -2 0 4965 0 4965 8808 -2 8807 -3 0
-4960z"/>
<path d="M13360 19765 l0 -1255 1250 0 1250 0 0 1255 0 1255 -1250 0 -1250 0
0 -1255z"/>
<path d="M17270 19765 l0 -1255 1253 2 1252 3 0 1250 0 1250 -1252 3 -1253 2
0 -1255z"/>
<path d="M21185 21008 c-3 -7 -4 -571 -3 -1253 l3 -1240 1253 -3 1252 -2 0
1255 0 1255 -1250 0 c-991 0 -1252 -3 -1255 -12z"/>
<path d="M25100 19765 l0 -1255 1250 0 1250 0 0 1255 0 1255 -1250 0 -1250 0
0 -1255z"/>
<path d="M13360 16000 l0 -1250 1250 0 1250 0 0 1250 0 1250 -1250 0 -1250 0
0 -1250z"/>
<path d="M17270 16000 l0 -1250 1253 2 1252 3 3 1248 2 1247 -1255 0 -1255 0
0 -1250z"/>
<path d="M21182 16003 l3 -1248 1253 -3 1252 -2 0 1250 0 1250 -1255 0 -1255
0 2 -1247z"/>
<path d="M25100 16000 l0 -1250 1250 0 1250 0 0 1250 0 1250 -1250 0 -1250 0
0 -1250z"/>
</g>
</svg>
