<?xml version="1.0" standalone="no"?>
<!DOCTYPE svg PUBLIC "-//W3C//DTD SVG 20010904//EN"
 "http://www.w3.org/TR/2001/REC-SVG-20010904/DTD/svg10.dtd">
<svg version="1.0" xmlns="http://www.w3.org/2000/svg"
 width="448.000000pt" height="512.000000pt" viewBox="0 0 448.000000 512.000000"
 preserveAspectRatio="xMidYMid meet">

<g transform="translate(0.000000,512.000000) scale(0.100000,-0.100000)"
fill="#000000" stroke="none">
<path d="M3032 4789 c-278 -36 -554 -177 -750 -383 -276 -291 -399 -680 -342
-1085 l13 -95 -976 -973 -977 -973 0 -163 0 -162 158 -158 157 -157 325 0 325
0 158 158 157 157 0 163 0 162 160 0 160 0 0 160 0 160 160 0 160 0 0 160 0
160 317 0 318 0 176 176 176 176 119 -17 c512 -75 1021 174 1287 628 56 97
100 207 134 337 35 132 43 363 18 511 -113 680 -746 1148 -1433 1058z m623
-660 c63 -30 123 -90 155 -154 20 -41 25 -65 25 -135 0 -78 -3 -90 -34 -148
-38 -70 -69 -100 -145 -140 -44 -23 -63 -27 -136 -27 -70 0 -94 5 -135 25
-260 127 -238 495 35 594 63 23 170 16 235 -15z m-2532 -2361 l-798 -798 -3
152 -3 152 798 798 798 798 3 -152 3 -152 -798 -798z"/>
</g>
</svg>
