<?xml version="1.0" standalone="no"?>
<!DOCTYPE svg PUBLIC "-//W3C//DTD SVG 20010904//EN"
 "http://www.w3.org/TR/2001/REC-SVG-20010904/DTD/svg10.dtd">
<svg version="1.0" xmlns="http://www.w3.org/2000/svg"
 width="512.000000pt" height="372.000000pt" viewBox="0 0 512.000000 372.000000"
 preserveAspectRatio="xMidYMid meet">

<g transform="translate(0.000000,372.000000) scale(0.100000,-0.100000)"
fill="#000000" stroke="none">
<path d="M190 3693 c-28 -10 -66 -37 -102 -73 -96 -96 -88 62 -88 -1760 0
-1822 -8 -1664 88 -1760 100 -100 -162 -90 2467 -90 2552 0 2363 -5 2455 63
30 22 55 53 75 93 l30 59 3 1615 c3 1844 10 1683 -86 1780 -100 100 164 90
-2476 89 -2092 -1 -2325 -2 -2366 -16z m4479 -210 c-1 -15 -2057 -1748 -2072
-1747 -12 1 -2091 1677 -2152 1735 -19 19 24 19 2103 19 1167 0 2122 -3 2121
-7z m171 -1615 l0 -1453 -39 40 c-162 166 -1431 1560 -1428 1569 4 13 1448
1294 1460 1295 4 1 7 -653 7 -1451z m-3765 777 c403 -341 734 -622 734 -625 1
-4 -1339 -1402 -1490 -1555 l-39 -40 0 1444 0 1444 30 -24 c17 -13 361 -303
765 -644z m1233 -1035 c200 -158 250 -193 282 -197 26 -4 47 0 62 9 13 9 127
102 253 207 l230 193 290 -296 c160 -162 510 -518 779 -791 269 -272 487 -498
484 -500 -3 -3 -967 -4 -2143 -3 l-2137 3 818 792 c501 485 822 789 829 784 5
-4 119 -95 253 -201z"/>
</g>
</svg>
