<?xml version="1.0" standalone="no"?>
<!DOCTYPE svg PUBLIC "-//W3C//DTD SVG 20010904//EN"
 "http://www.w3.org/TR/2001/REC-SVG-20010904/DTD/svg10.dtd">
<svg version="1.0" xmlns="http://www.w3.org/2000/svg"
 width="980.000000pt" height="946.000000pt" viewBox="0 0 980.000000 946.000000"
 preserveAspectRatio="xMidYMid meet">

<g transform="translate(0.000000,946.000000) scale(0.100000,-0.100000)"
fill="#000000" stroke="none">
<path d="M4635 9443 c-264 -33 -412 -65 -615 -132 -423 -141 -787 -366 -1099
-680 -430 -430 -698 -963 -793 -1576 -31 -203 -31 -597 0 -800 95 -613 363
-1146 793 -1576 424 -426 963 -699 1569 -794 159 -26 549 -31 722 -11 387 45
771 173 1101 369 l69 40 106 -42 c59 -24 179 -78 267 -121 1108 -541 1924
-1554 2220 -2754 49 -198 90 -435 101 -576 l7 -90 -4182 0 -4181 0 0 40 c0 62
38 320 70 476 106 506 307 991 597 1438 175 268 335 460 609 732 251 247 259
259 259 399 0 78 -4 98 -28 150 -58 124 -175 198 -317 199 -111 1 -173 -32
-325 -171 -842 -770 -1400 -1847 -1544 -2983 -27 -205 -45 -501 -38 -620 6
-115 27 -169 94 -241 59 -63 122 -96 210 -109 93 -13 9093 -13 9186 0 88 13
151 46 210 109 86 92 92 115 91 351 -4 690 -189 1436 -520 2091 -239 474 -532
878 -909 1254 -373 374 -778 669 -1232 898 -79 40 -143 75 -143 78 0 3 29 42
65 85 496 595 722 1381 620 2149 -52 397 -213 827 -432 1160 -459 697 -1185
1148 -2013 1250 -114 14 -506 19 -595 8z m515 -704 c648 -80 1228 -459 1557
-1017 431 -731 382 -1641 -125 -2321 -345 -462 -869 -764 -1446 -832 -126 -15
-472 -6 -582 14 -230 44 -407 103 -599 200 -843 428 -1295 1350 -1115 2273 95
489 361 927 749 1237 312 249 677 400 1086 450 69 9 397 6 475 -4z"/>
</g>
</svg>
